<svg width="194" height="44" viewBox="0 0 194 44" fill="none" xmlns="http://www.w3.org/2000/svg">
<g filter="url(#filter0_d_39_18)">
<path d="M43.136 1.304V35H34.928V14.792L27.392 35H20.768L13.184 14.744V35H4.976V1.304H14.672L24.128 24.632L33.488 1.304H43.136ZM65.1245 35.336C61.9565 35.336 59.0445 34.6 56.3885 33.128C53.7645 31.656 51.6685 29.608 50.1005 26.984C48.5645 24.328 47.7965 21.352 47.7965 18.056C47.7965 14.76 48.5645 11.8 50.1005 9.176C51.6685 6.552 53.7645 4.504 56.3885 3.032C59.0445 1.56 61.9565 0.823999 65.1245 0.823999C68.2925 0.823999 71.1885 1.56 73.8125 3.032C76.4685 4.504 78.5485 6.552 80.0525 9.176C81.5885 11.8 82.3565 14.76 82.3565 18.056C82.3565 21.352 81.5885 24.328 80.0525 26.984C78.5165 29.608 76.4365 31.656 73.8125 33.128C71.1885 34.6 68.2925 35.336 65.1245 35.336ZM65.1245 27.848C67.8125 27.848 69.9565 26.952 71.5565 25.16C73.1885 23.368 74.0045 21 74.0045 18.056C74.0045 15.08 73.1885 12.712 71.5565 10.952C69.9565 9.16 67.8125 8.264 65.1245 8.264C62.4045 8.264 60.2285 9.144 58.5965 10.904C56.9965 12.664 56.1965 15.048 56.1965 18.056C56.1965 21.032 56.9965 23.416 58.5965 25.208C60.2285 26.968 62.4045 27.848 65.1245 27.848ZM118.705 1.304L106.753 35H96.4809L84.5289 1.304H93.2649L101.617 26.744L110.017 1.304H118.705ZM130.493 1.304V35H122.285V1.304H130.493ZM144.8 7.88V14.696H155.792V21.032H144.8V28.424H157.232V35H136.592V1.304H157.232V7.88H144.8ZM179.894 35L172.886 22.28H170.918V35H162.71V1.304H176.486C179.142 1.304 181.398 1.768 183.254 2.696C185.142 3.624 186.55 4.904 187.478 6.536C188.406 8.136 188.87 9.928 188.87 11.912C188.87 14.152 188.23 16.152 186.95 17.912C185.702 19.672 183.846 20.92 181.382 21.656L189.158 35H179.894ZM170.918 16.472H176.006C177.51 16.472 178.63 16.104 179.366 15.368C180.134 14.632 180.518 13.592 180.518 12.248C180.518 10.968 180.134 9.96 179.366 9.224C178.63 8.488 177.51 8.12 176.006 8.12H170.918V16.472Z" fill="#FFCE00"/>
</g>
<defs>
<filter id="filter0_d_39_18" x="0.976074" y="0.824005" width="192.182" height="42.512" filterUnits="userSpaceOnUse" color-interpolation-filters="sRGB">
<feFlood flood-opacity="0" result="BackgroundImageFix"/>
<feColorMatrix in="SourceAlpha" type="matrix" values="0 0 0 0 0 0 0 0 0 0 0 0 0 0 0 0 0 0 127 0" result="hardAlpha"/>
<feOffset dy="4"/>
<feGaussianBlur stdDeviation="2"/>
<feColorMatrix type="matrix" values="0 0 0 0 0 0 0 0 0 0 0 0 0 0 0 0 0 0 0.25 0"/>
<feBlend mode="normal" in2="BackgroundImageFix" result="effect1_dropShadow_39_18"/>
<feBlend mode="normal" in="SourceGraphic" in2="effect1_dropShadow_39_18" result="shape"/>
</filter>
</defs>
</svg>
